<?xml version="1.0" encoding="utf-8"?>
<!-- Generator: Adobe Illustrator 14.0.0, SVG Export Plug-In . SVG Version: 6.00 Build 43363)  -->
<!DOCTYPE svg PUBLIC "-//W3C//DTD SVG 1.1//EN" "http://www.w3.org/Graphics/SVG/1.1/DTD/svg11.dtd">
<svg version="1.1" id="Layer_1" xmlns="http://www.w3.org/2000/svg" xmlns:xlink="http://www.w3.org/1999/xlink" x="0px" y="0px"
	 width="438.324px" height="438.324px" viewBox="0 0 438.324 438.324" enable-background="new 0 0 438.324 438.324"
	 xml:space="preserve">
<g id="Layer_1_1_">
	<rect y="0" fill="#F67F00" width="438.324" height="438.324"/>
	<path fill="#FFFFFF" d="M108.982,184.431"/>
	<g>
		<g>
			<path fill="#FFFFFF" d="M165.915,332.367c-4.336,2.441-8.799,3.662-13.389,3.662c-5.723,0-10.352-1.942-13.887-5.83
				c-3.535-3.887-5.303-8.983-5.303-15.293c0-6.367,1.904-11.68,5.713-15.938c3.809-4.259,8.896-6.388,15.264-6.388
				c3.691,0,7.275,0.742,10.752,2.228v3.164c-3.809-1.836-7.529-2.754-11.162-2.754c-5.293,0-9.546,1.807-12.759,5.42
				c-3.213,3.612-4.819,8.223-4.819,13.828c0,5.897,1.509,10.521,4.526,13.872c3.017,3.35,7.085,5.023,12.202,5.023
				c3.789,0,7.109-0.819,9.961-2.461v-13.856h-9.902v-2.638h12.803V332.367z"/>
			<path fill="#FFFFFF" d="M192.956,335.298v-6.007h-0.117c-0.957,2.052-2.349,3.688-4.175,4.907
				c-1.826,1.221-3.853,1.831-6.079,1.831c-2.852,0-5.107-0.801-6.768-2.401c-1.661-1.602-2.49-3.623-2.49-6.064
				c0-5.234,3.467-8.398,10.4-9.492l9.229-1.377c0-6.445-2.422-9.668-7.266-9.668c-3.301,0-6.514,1.328-9.639,3.984v-3.253
				c1.113-0.879,2.622-1.631,4.526-2.256c1.904-0.625,3.696-0.938,5.376-0.938c3.086,0,5.474,0.957,7.163,2.871
				c1.689,1.914,2.534,4.697,2.534,8.35v19.513H192.956L192.956,335.298z M184.694,320.355c-3.145,0.449-5.352,1.177-6.621,2.183
				c-1.269,1.007-1.904,2.643-1.904,4.907c0,1.777,0.591,3.242,1.772,4.396c1.181,1.152,2.827,1.729,4.937,1.729
				c2.891,0,5.293-1.068,7.207-3.208c1.914-2.139,2.871-4.896,2.871-8.275v-2.931L184.694,320.355z"/>
			<path fill="#FFFFFF" d="M204.674,335.298v-44.415h2.695v44.415H204.674z"/>
			<path fill="#FFFFFF" d="M216.979,335.298v-44.415h2.695v44.415H216.979z"/>
			<path fill="#FFFFFF" d="M229.928,320.414c0,4.121,0.952,7.345,2.856,9.668c1.903,2.324,4.517,3.486,7.837,3.486
				c3.359,0,6.641-1.24,9.844-3.721v2.871c-3.105,2.207-6.572,3.311-10.4,3.311c-3.866,0-6.991-1.387-9.375-4.16
				c-2.383-2.772-3.573-6.688-3.573-11.748c0-4.375,1.245-8.062,3.735-11.06c2.489-2.998,5.728-4.497,9.711-4.497
				c3.73,0,6.592,1.309,8.584,3.926s2.988,6.191,2.988,10.724v1.2H229.928L229.928,320.414z M249.323,317.953
				c-0.117-3.457-0.947-6.143-2.49-8.057s-3.672-2.871-6.388-2.871c-2.813,0-5.141,0.941-6.986,2.827
				c-1.846,1.885-2.982,4.585-3.413,8.101H249.323z"/>
			<path fill="#FFFFFF" d="M273.727,308.109c-0.897-0.646-1.953-0.967-3.164-0.967c-2.362,0-4.346,1.221-5.946,3.662
				c-1.601,2.44-2.402,5.908-2.402,10.399v14.093h-2.637v-30.001h2.637v6.65h0.117c0.685-2.285,1.769-4.063,3.252-5.332
				s3.203-1.904,5.156-1.904c1.112,0,2.108,0.177,2.987,0.527V308.109L273.727,308.109z"/>
			<path fill="#FFFFFF" d="M290.368,341.421c-1.095,2.694-2.306,4.696-3.634,6.006c-1.327,1.309-3.036,1.963-5.127,1.963
				c-0.879,0-1.659-0.137-2.344-0.41v-2.695c0.703,0.273,1.523,0.41,2.461,0.41c2.402,0,4.297-1.66,5.685-4.979l2.782-6.65
				l-11.366-29.767h3.018l9.054,24.435c0.194,0.527,0.332,0.928,0.41,1.201c0.077,0.371,0.166,0.703,0.264,0.996h0.117l0.703-2.021
				l9.668-24.609h2.93L290.368,341.421z"/>
		</g>
		<path fill="#FFFFFF" d="M198.321,153.121h41.682v41.683h-41.682V153.121L198.321,153.121z M198.321,98.935h41.682v41.681h-41.682
			V98.935L198.321,98.935z M144.135,98.935h41.682v41.681h-41.682V98.935L144.135,98.935z M144.135,153.121h41.682v41.683h-41.682
			V153.121L144.135,153.121z M252.506,153.121h41.682v41.683h-41.682V153.121L252.506,153.121z M252.506,98.935h41.682v41.681
			h-41.682V98.935L252.506,98.935z M144.135,207.307h41.682v41.681h-41.682V207.307L144.135,207.307z M198.321,207.307h41.682
			v41.681h-41.682V207.307L198.321,207.307z M252.506,207.307h41.682v41.681h-41.682V207.307L252.506,207.307z"/>
	</g>
</g>
<g id="Layer_2" display="none">
	<rect x="119.794" y="178.207" display="inline" fill="none" width="176" height="93"/>
	
		<text transform="matrix(1 0 0 1 119.7944 222.6062)" display="inline" fill="#FFFFFF" font-family="'SegoeUI-Light'" font-size="60">Gallery</text>
</g>
</svg>
