<?xml version="1.0" encoding="utf-8"?>
<!-- Generator: Adobe Illustrator 14.0.0, SVG Export Plug-In . SVG Version: 6.00 Build 43363)  -->
<!DOCTYPE svg PUBLIC "-//W3C//DTD SVG 1.1//EN" "http://www.w3.org/Graphics/SVG/1.1/DTD/svg11.dtd">
<svg version="1.1" xmlns="http://www.w3.org/2000/svg" xmlns:xlink="http://www.w3.org/1999/xlink" x="0px" y="0px"
	 width="438.324px" height="438.324px" viewBox="0 0 438.324 438.324" enable-background="new 0 0 438.324 438.324"
	 xml:space="preserve">
<g id="Layer_1">
	<rect y="0" fill="#00AAF1" width="438.324" height="438.324"/>
	<path fill="#FFFFFF" d="M108.982,184.431"/>
	<path fill="#FFFFFF" d="M215.444,274.952c10.27,0,18.593,8.322,18.593,18.59c0,10.277-8.323,18.601-18.593,18.601
		c-10.271,0-18.596-8.323-18.596-18.601C196.848,283.274,205.172,274.952,215.444,274.952z M219.163,126.181
		c32.867,0,59.504,21.258,59.504,52.069c0,11.158-7.433,29.754-22.314,37.191c-14.874,7.439-22.315,17.433-22.315,29.755v14.873
		h-37.188v-11.157c0-25.294,22.314-40.908,29.756-48.347c14.874-14.876,14.874-16.94,14.874-22.315
		c0-12.325-9.992-22.314-22.315-22.314c-12.325,0-22.314,9.989-22.314,22.314v11.158h-37.191v-7.439
		C159.657,151.16,186.298,126.181,219.163,126.181z"/>
</g>
<g id="Layer_2" display="none">
	<rect x="129.794" y="281.207" display="inline" fill="none" width="176" height="93"/>
	
		<text transform="matrix(1 0 0 1 129.7944 325.6062)" display="inline" fill="#FFFFFF" font-family="'SegoeUI-Light'" font-size="60">Social</text>
</g>
</svg>
