<?xml version="1.0" encoding="utf-8"?>
<!-- Generator: Adobe Illustrator 14.0.0, SVG Export Plug-In . SVG Version: 6.00 Build 43363)  -->
<!DOCTYPE svg PUBLIC "-//W3C//DTD SVG 1.1//EN" "http://www.w3.org/Graphics/SVG/1.1/DTD/svg11.dtd">
<svg version="1.1" xmlns="http://www.w3.org/2000/svg" xmlns:xlink="http://www.w3.org/1999/xlink" x="0px" y="0px"
	 width="438.324px" height="438.324px" viewBox="0 0 438.324 438.324" enable-background="new 0 0 438.324 438.324"
	 xml:space="preserve">
<g id="Layer_1">
	<rect y="0" fill="#B4B921" width="438.324" height="438.324"/>
	<path fill="#FFFFFF" d="M108.982,184.431"/>
	<path fill="#FFFFFF" d="M219.162,126.206c51.338,0,92.956,41.616,92.956,92.956c0,51.341-41.618,92.956-92.956,92.956
		c-51.337,0-92.955-41.615-92.955-92.956C126.207,167.822,167.825,126.206,219.162,126.206z M195.922,195.923v15.492h15.493v54.225
		h-15.493v15.49h54.227v-15.49h-15.498v-54.225v-15.492H195.922z M223.032,157.192c-6.415,0-11.616,5.203-11.616,11.619
		c0,6.417,5.201,11.619,11.616,11.619c6.422,0,11.619-5.202,11.619-11.619C234.651,162.395,229.454,157.192,223.032,157.192z"/>
</g>
<g id="Layer_2" display="none">
	<rect x="129.794" y="281.207" display="inline" fill="none" width="176" height="93"/>
	
		<text transform="matrix(1 0 0 1 129.7944 325.6062)" display="inline" fill="#FFFFFF" font-family="'SegoeUI-Light'" font-size="60">Social</text>
</g>
</svg>
