<?xml version="1.0" encoding="utf-8"?>
<!-- Generator: Adobe Illustrator 14.0.0, SVG Export Plug-In . SVG Version: 6.00 Build 43363)  -->
<!DOCTYPE svg PUBLIC "-//W3C//DTD SVG 1.1//EN" "http://www.w3.org/Graphics/SVG/1.1/DTD/svg11.dtd">
<svg version="1.1" id="Layer_1" xmlns="http://www.w3.org/2000/svg" xmlns:xlink="http://www.w3.org/1999/xlink" x="0px" y="0px"
	 width="438.324px" height="438.324px" viewBox="0 0 438.324 438.324" enable-background="new 0 0 438.324 438.324"
	 xml:space="preserve">
<rect x="1.334" y="-1.198" fill="#FFFFFF" width="438.324" height="438.324"/>
<g>
	<g>
		<path fill="#2E1C17" d="M76.297,307.14c-0.113,16.402,15.724,17.759,30.204,14.252l1.13,4.186
			c-8.031,2.15-16.854,2.604-23.756,0.453c-8.938-2.939-12.67-8.71-12.67-20.137v-14.479c0-22.061,18.666-27.378,36.2-19.229
			l-1.47,3.959c-13.915-6.108-29.639-3.396-29.639,14.593L76.297,307.14L76.297,307.14z"/>
		<path fill="#2E1C17" d="M124.712,247.069v79.188h-5.091v-79.188H124.712L124.712,247.069z"/>
		<path fill="#2E1C17" d="M142.697,245.938c1.695,0,3.054,1.356,3.054,3.055s-1.359,3.167-3.054,3.167
			c-1.696,0-3.167-1.471-3.167-3.167S141.001,245.938,142.697,245.938z M145.185,269.582v56.676h-5.091v-56.676H145.185z"/>
		<path fill="#2E1C17" d="M165.659,269.582l-0.451,6.225c4.299-4.979,10.859-7.128,16.063-7.128
			c15.045,0,21.946,9.729,21.946,22.059v15.611c0,14.141-8.937,21.267-21.157,21.267c-7.238,0-12.553-2.036-16.401-7.239v29.64
			l-5.09-1.924v-78.508L165.659,269.582L165.659,269.582z M198.125,290.283c0-13.234-9.162-16.969-16.517-16.969
			c-6.334,0-14.818,3.167-15.95,13.802v20.701c0,10.407,6.901,15.157,16.515,15.157c7.694,0,15.951-4.41,15.951-15.497
			L198.125,290.283L198.125,290.283z"/>
		<path fill="#AFB536" d="M280.359,268.677c23.529,0,23.529,13.009,23.529,23.866v33.713c-17.986,1.694-43.556,5.092-43.556-19.116
			v-9.393c0-8.146,3.281-12.782,7.92-15.045c8.031-3.959,22.513-1.472,30.542,4.412c0-7.127-2.827-14.479-18.775-14.367
			L280.359,268.677z M265.314,307.93c0,15.159,15.27,16.517,33.48,14.025v-30.653c-10.184-5.545-33.48-12.331-33.48,6.785V307.93z"
			/>
		<path fill="#AFB536" d="M320.966,245.938c1.695,0,3.054,1.356,3.054,3.055s-1.356,3.167-3.054,3.167
			c-1.696,0-3.169-1.471-3.169-3.167S319.27,245.938,320.966,245.938z M323.455,269.582v56.676h-5.092v-56.676H323.455z"/>
		<path fill="#AFB536" d="M343.93,269.582l-0.229,4.524c7.129-7.016,17.421-5.771,23.417-4.524l-1.357,4.751
			c-8.823-2.829-21.831-0.112-21.831,7.354v44.57h-5.092v-56.676H343.93L343.93,269.582z"/>
		<g>
			<path fill="#AFB536" d="M243.032,248.75v6.239v71.269h4.979v-74.322C246.41,250.634,244.736,249.58,243.032,248.75z"/>
			<path fill="#AFB536" d="M221.652,263.586c0-8.012,6.309-12.913,14.113-11.557v-5.451c-10.049-1.219-19.206,4.905-19.206,16.216
				v63.464h5.09v-51.812h11.99l2.147-4.864h-14.14v-5.996H221.652L221.652,263.586z"/>
		</g>
	</g>
	<g>
		<g>
			<g>
				<g>
					<g>
						<g>
							<path id="SVGID_1_" fill="#A61D35" d="M186.271,113.5c-8.884-0.366-17.005,6.073-16.389,14.453l4.062,55.292l68.555-0.716
								c7.709,0.516,21.438-2.359,22.582-10.968l-6.94-55.11L186.271,113.5z"/>
						</g>
					</g>
				</g>
			</g>
			<g enable-background="new    ">
				<g>
					<g>
						<defs>
							<path id="SVGID_2_" d="M189.013,114.977c-8.884,0-17.505,6.979-17.505,15.587v56.81l79.434-5.496
								c8.884,0,24.123-3.766,24.123-12.374l-14.187-54.526H189.013L189.013,114.977z"/>
						</defs>
						<clipPath id="SVGID_3_">
							<use xlink:href="#SVGID_2_"  overflow="visible"/>
						</clipPath>
						<g clip-path="url(#SVGID_3_)">
							<path fill="#B23F52" d="M172.482,152.523c0,0,49.946,12.618,82.478-20.191c45.595-45.978-95.309-24.628-95.309-24.628
								L172.482,152.523z"/>
						</g>
					</g>
				</g>
			</g>
			<g>
				<path fill="#2E1C17" d="M155.107,187.706c-5.249,0-9.962-1.992-13.273-5.608c-3.116-3.409-4.603-7.892-4.18-12.618l5.743-64.398
					c0.901-10.092,9.126-17.611,18.712-16.689l81.887,7.697c9.238,0.87,17.186,8.4,18.092,17.144l5.743,55.396
					c0.403,3.89-0.853,7.706-3.531,10.747c-3.329,3.782-8.519,6.023-14.237,6.155L155.107,187.706L155.107,187.706z M160.594,94.892
					c-5.433,0-10.109,4.731-10.648,10.771l-5.745,64.398c-0.254,2.868,0.627,5.563,2.485,7.595c2.048,2.241,5.041,3.475,8.42,3.475
					l0.321-0.004l94.484-2.171c3.888-0.09,7.334-1.521,9.454-3.928c1.027-1.167,2.197-3.106,1.926-5.724l-5.743-55.396
					c-0.573-5.543-6.147-10.708-12.167-11.273l-81.889-7.699C161.191,94.905,160.892,94.892,160.594,94.892L160.594,94.892z"/>
			</g>
			<g>
				<path fill="#2E1C17" d="M267.268,217.964c-0.391,0-0.778-0.016-1.176-0.046l-78.218-4.802
					c-9.142-0.72-16.767-9.192-17.421-19.292l-4.22-65.104c-0.311-4.773,1.253-9.257,4.407-12.618
					c3.423-3.651,8.266-5.57,13.628-5.32l92.548,4.308c5.063,0.236,9.615,2.439,12.809,6.202c3.217,3.789,4.658,8.682,4.061,13.775
					l-8.893,65.485C283.671,210.285,275.971,217.964,267.268,217.964L267.268,217.964z M183.358,117.337
					c-3.137,0-5.95,1.158-7.921,3.263c-1.895,2.021-2.833,4.757-2.643,7.695l4.218,65.104c0.434,6.684,5.617,12.71,11.321,13.16
					l78.217,4.802c0.277,0.021,0.497,0.029,0.718,0.029c5.414,0,10.248-5.119,11-11.655l8.896-65.489
					c0.374-3.205-0.529-6.313-2.553-8.696c-2.002-2.354-4.877-3.738-8.104-3.888l-92.547-4.308
					C183.76,117.341,183.558,117.337,183.358,117.337L183.358,117.337z"/>
			</g>
		</g>
		<g opacity="0.22">
			<circle fill="#FFFFFF" cx="215.221" cy="149.022" r="14.878"/>
			<path fill="#2E1C17" d="M215.22,164.724c-8.657,0-15.7-7.044-15.7-15.701s7.042-15.701,15.7-15.701
				c8.659,0,15.702,7.044,15.702,15.701S223.879,164.724,215.22,164.724L215.22,164.724z M215.22,134.965
				c-7.75,0-14.056,6.308-14.056,14.06s6.307,14.056,14.056,14.056c7.75,0,14.055-6.304,14.055-14.056
				S222.971,134.965,215.22,134.965L215.22,134.965z"/>
		</g>
		<g opacity="0.8">
			<polygon fill="#2E1C17" points="211.849,141.691 223.081,149.177 211.849,156.669 			"/>
		</g>
		<g>
			<polygon fill="#2E1C17" points="173.135,187.374 147.706,194.929 147.476,183.245 			"/>
		</g>
		<g>
			<polygon fill="#2E1C17" points="239.462,216.333 265.066,227.576 265.811,217.157 			"/>
		</g>
	</g>
</g>
</svg>
