<?xml version="1.0" encoding="utf-8"?>
<!-- Generator: Adobe Illustrator 14.0.0, SVG Export Plug-In . SVG Version: 6.00 Build 43363)  -->
<!DOCTYPE svg PUBLIC "-//W3C//DTD SVG 1.1//EN" "http://www.w3.org/Graphics/SVG/1.1/DTD/svg11.dtd">
<svg version="1.1" id="Layer_1" xmlns="http://www.w3.org/2000/svg" xmlns:xlink="http://www.w3.org/1999/xlink" x="0px" y="0px"
	 width="438.324px" height="438.324px" viewBox="0 0 438.324 438.324" enable-background="new 0 0 438.324 438.324"
	 xml:space="preserve">
<g id="Layer_1_1_">
	<rect y="0" fill="#C32540" width="438.324" height="438.324"/>
	<path fill="#FFFFFF" d="M108.982,184.431"/>
	<g>
		<path fill="#FFFFFF" d="M218.244,99.461c11.583,0,20.979,9.391,20.979,20.977c0,11.583-9.396,20.974-20.979,20.974
			s-20.976-9.391-20.976-20.974C197.268,108.85,206.661,99.461,218.244,99.461z M197.268,167.825
			c-2.796,1.398-7.406,13.571-4.877,15.207l-13.617-2.504c9.264-3.356,11.119-8.962,11.871-19.191l-0.714-6.359
			c3.042-2.531,7.541-8.125,11.533-8.125h33.56c4.078,0,7.662,1.733,10.75,4.36l1.967,7.239c0,8.548,6.514,11.119,13.318,15.259
			l-9.518-0.198c-2.473-0.09-4.766,0.468-6.874,1.481c-1.786-3.071-3.994-6.44-5.446-7.169l0.469,10.621
			c-8.879,8.15-13.318,23.535-13.318,23.535l-1.536,7.62l-4.494,0.173c-3.017,0-5.979-0.234-8.867-0.688
			c-2.301-6.113-7.314-17.145-15.044-22.287L197.268,167.825z M166.07,138.594c11.583,0,20.975,9.391,20.975,20.974
			c0,11.585-9.392,20.978-20.975,20.978c-11.586,0-20.976-9.393-20.976-20.978C145.094,147.983,154.484,138.594,166.07,138.594z
			 M145.094,206.959c-2.796,1.398-8.39,12.582-8.39,12.582s-2.796,4.193-4.194,20.978l-12.586-4.197l4.196-20.974
			c0,0,8.39-29.365,25.169-29.365h33.56c16.779,0,25.169,29.365,25.169,29.365l4.196,20.974l-12.586,4.197
			c-1.398-16.783-4.193-20.978-4.193-20.978s-5.595-11.184-8.391-12.582l1.694,38.097c-6.378,2.483-13.315,3.852-20.572,3.852
			c-8.847,0-17.22-2.027-24.678-5.646L145.094,206.959z M272.254,130.652c11.583,0.411,20.975,10.137,20.975,21.721
			c0,11.585-9.392,20.642-20.975,20.229c-11.587-0.413-20.975-10.139-20.975-21.722
			C251.281,139.296,260.667,130.239,272.254,130.652z M251.281,198.271c-2.797,1.299-8.393,12.282-8.393,12.282
			s-2.796,4.095-4.193,20.826l-12.586-4.643l4.193-20.823c0,0,8.393-29.065,25.172-28.471l33.56,1.194
			c16.778,0.599,25.171,30.264,25.171,30.264l4.193,21.123l-12.586,3.744c-1.396-16.828-4.192-21.122-4.192-21.122
			s-5.597-11.389-8.392-12.886l1.696,38.159c-6.379,2.259-13.319,3.379-20.573,3.119c-8.846-0.315-17.219-2.643-24.677-6.521
			L251.281,198.271z"/>
		<g>
			<path fill="#FFFFFF" d="M151.413,334.636v-3.312c3.008,1.914,6.055,2.871,9.141,2.871c3.281,0,5.771-0.678,7.471-2.035
				c1.7-1.356,2.549-3.258,2.549-5.698c0-2.148-0.571-3.861-1.714-5.142s-3.618-3.022-7.427-5.229
				c-4.258-2.48-6.953-4.556-8.086-6.226c-1.133-1.67-1.699-3.6-1.699-5.787c0-2.969,1.152-5.488,3.457-7.559
				c2.305-2.071,5.381-3.105,9.229-3.105c2.5,0,5,0.42,7.5,1.26v3.048c-2.461-1.113-5.088-1.671-7.881-1.671
				c-2.852,0-5.112,0.724-6.782,2.169c-1.67,1.444-2.505,3.28-2.505,5.508c0,2.147,0.571,3.856,1.714,5.127s3.608,2.998,7.397,5.186
				c3.926,2.228,6.538,4.205,7.837,5.935c1.299,1.729,1.948,3.715,1.948,5.961c0,3.223-1.118,5.85-3.354,7.881
				s-5.396,3.047-9.478,3.047c-1.445,0-3.11-0.225-4.995-0.674C153.85,335.741,152.409,335.222,151.413,334.636z"/>
			<path fill="#FFFFFF" d="M194.01,336.863c-4.375,0-7.837-1.438-10.386-4.319c-2.549-2.882-3.823-6.628-3.823-11.236
				c0-4.98,1.333-8.877,3.999-11.689c2.666-2.812,6.177-4.219,10.532-4.219c4.277,0,7.656,1.396,10.137,4.189
				c2.481,2.793,3.721,6.659,3.721,11.602c0,4.668-1.265,8.447-3.794,11.338C201.867,335.42,198.405,336.863,194.01,336.863z
				 M194.215,307.859c-3.535,0-6.353,1.191-8.452,3.574c-2.099,2.383-3.149,5.693-3.149,9.932c0,3.927,1.025,7.08,3.076,9.463
				c2.051,2.384,4.854,3.574,8.408,3.574c3.613,0,6.396-1.172,8.35-3.516c1.954-2.344,2.93-5.597,2.93-9.756
				c0-4.277-0.972-7.56-2.915-9.845C200.52,309.002,197.77,307.859,194.215,307.859z"/>
			<path fill="#FFFFFF" d="M235.055,334.812c-2.227,1.367-4.883,2.051-7.969,2.051c-4.082,0-7.373-1.399-9.873-4.203
				c-2.5-2.803-3.75-6.471-3.75-11.002c0-4.766,1.406-8.666,4.219-11.703s6.425-4.557,10.839-4.557c2.285,0,4.502,0.469,6.65,1.406
				v3.047c-2.148-1.328-4.502-1.992-7.061-1.992c-3.517,0-6.367,1.266-8.555,3.795s-3.281,5.806-3.281,9.828
				c0,3.887,1.001,7.012,3.003,9.375c2.001,2.363,4.644,3.545,7.925,3.545c3.008,0,5.625-0.801,7.852-2.401V334.812L235.055,334.812
				z"/>
			<path fill="#FFFFFF" d="M243.581,298.572c-0.586,0-1.104-0.215-1.554-0.645c-0.448-0.431-0.674-0.978-0.674-1.642
				c0-0.645,0.229-1.166,0.688-1.565c0.458-0.4,0.972-0.603,1.538-0.603c0.605,0,1.138,0.195,1.597,0.586
				c0.458,0.392,0.688,0.918,0.688,1.582c0,0.625-0.225,1.162-0.674,1.611S244.206,298.572,243.581,298.572z M242.262,336.132
				v-30.001h2.695v30.001H242.262z"/>
			<path fill="#FFFFFF" d="M272.497,336.132v-6.006h-0.117c-0.957,2.051-2.349,3.688-4.175,4.907
				c-1.827,1.222-3.854,1.83-6.079,1.83c-2.853,0-5.106-0.801-6.769-2.401c-1.66-1.602-2.489-3.623-2.489-6.064
				c0-5.234,3.467-8.398,10.399-9.492l9.229-1.377c0-6.445-2.422-9.668-7.267-9.668c-3.301,0-6.514,1.328-9.639,3.984v-3.252
				c1.113-0.88,2.622-1.632,4.526-2.257c1.903-0.625,3.696-0.938,5.376-0.938c3.086,0,5.474,0.957,7.163,2.871
				c1.688,1.914,2.534,4.697,2.534,8.35v19.513H272.497L272.497,336.132z M264.234,321.189c-3.145,0.449-5.352,1.178-6.621,2.184
				c-1.269,1.007-1.903,2.642-1.903,4.906c0,1.777,0.59,3.242,1.772,4.396c1.182,1.151,2.826,1.729,4.937,1.729
				c2.892,0,5.293-1.067,7.207-3.207c1.914-2.139,2.871-4.897,2.871-8.276v-2.931L264.234,321.189z"/>
			<path fill="#FFFFFF" d="M284.215,336.132v-44.415h2.695v44.415H284.215z"/>
		</g>
	</g>
</g>
<g id="Layer_2" display="none">
	<rect x="129.794" y="281.207" display="inline" fill="none" width="176" height="93"/>
	
		<text transform="matrix(1 0 0 1 129.7944 325.6062)" display="inline" fill="#FFFFFF" font-family="'SegoeUI-Light'" font-size="60">Social</text>
</g>
</svg>
