<?xml version="1.0" encoding="utf-8"?>
<!-- Generator: Adobe Illustrator 14.0.0, SVG Export Plug-In . SVG Version: 6.00 Build 43363)  -->
<!DOCTYPE svg PUBLIC "-//W3C//DTD SVG 1.1//EN" "http://www.w3.org/Graphics/SVG/1.1/DTD/svg11.dtd">
<svg version="1.1" id="Layer_1" xmlns="http://www.w3.org/2000/svg" xmlns:xlink="http://www.w3.org/1999/xlink" x="0px" y="0px"
	 width="438.324px" height="438.324px" viewBox="0 0 438.324 438.324" enable-background="new 0 0 438.324 438.324"
	 xml:space="preserve">
<rect y="0" fill="#1878EC" width="438.324" height="438.324"/>
<path fill="#FFFFFF" d="M108.982,184.431"/>
<g>
	<g>
		<path fill="#FFFFFF" d="M186.043,152.719c3.652-0.844,7.293,1.434,8.136,5.082l3.813,16.521l-79.303,18.309l-3.813-16.521
			c-0.843-3.647,1.433-7.292,5.083-8.132L186.043,152.719z M119.706,181.958l1.526,6.606l12.708-20.336l-6.609,1.525
			L119.706,181.958z M131.145,186.274l6.608-1.522l12.707-20.336l-6.609,1.524L131.145,186.274z M147.666,182.463l6.608-1.526
			L166.98,160.6l-6.609,1.524L147.666,182.463z M164.187,178.647l6.609-1.525l12.706-20.336l-6.607,1.526L164.187,178.647z
			 M180.708,174.833l6.607-1.526l5.084-8.134l-1.524-6.606L180.708,174.833z M193.297,236.716h-67.825
			c-3.746,0-6.783-3.036-6.783-6.78v-37.305h81.389v37.305C200.078,233.679,197.041,236.716,193.297,236.716z M142.429,196.023
			l-13.565,13.564h6.782l13.564-13.564H142.429z M159.384,196.023l-13.565,13.564h6.784l13.562-13.564H159.384z M176.338,196.023
			l-13.562,13.564h6.781l13.566-13.564H176.338z M193.297,196.023l-13.566,13.564h6.781l10.156-10.155l0.017-3.409H193.297z
			 M125.472,196.023l-3.391,3.393v6.781l10.173-10.174H125.472z"/>
		<path fill="#FFFFFF" d="M227.621,232.261l-5.084,22.036l20.832-4.809C240.73,241.548,236.308,234.431,227.621,232.261z
			 M262.63,246.279l60.992-60.994c-4.688-9.534-11.476-17.849-19.763-24.34l-57.269,57.27v12.025h16.037v16.039H262.63z
			 M242.582,216.21l57.813-57.813c-2.809-1.936-5.764-3.67-8.846-5.188l-58.99,58.99v4.011H242.582z"/>
		<g>
			<polygon fill="#FFFFFF" points="226.009,207.893 230.735,203.107 208.198,203.107 208.198,218.316 224.03,218.316 			"/>
			<polygon fill="#FFFFFF" points="275.167,158.102 290.376,142.698 290.376,104.245 138.282,104.245 138.282,156.231 
				153.491,152.458 153.491,134.664 275.167,134.664 			"/>
		</g>
	</g>
	<g>
		<path fill="#FFFFFF" d="M142.484,339.213v-3.312c3.007,1.914,6.054,2.871,9.141,2.871c3.281,0,5.771-0.679,7.471-2.036
			c1.7-1.356,2.549-3.257,2.549-5.698c0-2.147-0.571-3.861-1.714-5.142s-3.618-3.022-7.427-5.229
			c-4.258-2.479-6.954-4.556-8.086-6.226c-1.133-1.67-1.699-3.599-1.699-5.786c0-2.969,1.152-5.488,3.457-7.559
			c2.304-2.07,5.38-3.105,9.229-3.105c2.5,0,5,0.42,7.5,1.26v3.047c-2.461-1.112-5.088-1.67-7.881-1.67
			c-2.852,0-5.112,0.724-6.782,2.168c-1.67,1.445-2.505,3.281-2.505,5.509c0,2.147,0.571,3.856,1.714,5.127
			c1.143,1.27,3.608,2.998,7.397,5.186c3.926,2.228,6.538,4.204,7.837,5.934c1.299,1.729,1.948,3.716,1.948,5.962
			c0,3.223-1.118,5.85-3.354,7.881c-2.237,2.031-5.396,3.047-9.478,3.047c-1.446,0-3.11-0.225-4.995-0.674
			C144.92,340.316,143.48,339.799,142.484,339.213z"/>
		<path fill="#FFFFFF" d="M184.906,340.297c-1.406,0.664-2.725,0.995-3.955,0.995c-4.434,0-6.65-2.655-6.65-7.969v-20.156h-5.391
			v-2.461h5.391v-7.793c0.429-0.156,0.879-0.313,1.348-0.469c0.469-0.137,0.918-0.283,1.348-0.439v8.701h7.91v2.461h-7.91v19.806
			c0,2.069,0.327,3.568,0.981,4.497c0.654,0.928,1.762,1.392,3.325,1.392c1.113,0,2.314-0.36,3.604-1.084L184.906,340.297
			L184.906,340.297z"/>
		<path fill="#FFFFFF" d="M210.658,340.707v-5.448h-0.117c-2.09,4.121-5.313,6.182-9.668,6.182c-7.09,0-10.635-4.463-10.635-13.389
			v-17.345h2.725v16.671c0,4.063,0.669,7.012,2.007,8.848c1.337,1.836,3.442,2.754,6.313,2.754c2.793,0,5.054-1.025,6.782-3.076
			s2.593-4.785,2.593-8.203v-16.992h2.695v30L210.658,340.707L210.658,340.707z"/>
		<path fill="#FFFFFF" d="M244.261,340.707v-5.448h-0.117c-0.977,1.895-2.422,3.397-4.336,4.512s-4.072,1.67-6.475,1.67
			c-3.691,0-6.705-1.348-9.037-4.043c-2.334-2.695-3.502-6.416-3.502-11.162c0-4.844,1.274-8.765,3.824-11.763
			c2.549-2.998,5.854-4.497,9.916-4.497c4.492,0,7.695,1.846,9.609,5.537h0.117v-19.22h2.695v44.414H244.261z M244.261,322.455
			c0-2.793-0.883-5.16-2.65-7.104c-1.77-1.943-4.146-2.915-7.135-2.915c-3.145,0-5.742,1.206-7.793,3.618s-3.076,5.728-3.076,9.946
			c0,4.141,0.923,7.339,2.77,9.595c1.846,2.256,4.223,3.384,7.133,3.384c3.418,0,6.064-1.06,7.939-3.179s2.813-4.702,2.813-7.749
			V322.455z"/>
		<path fill="#FFFFFF" d="M257.884,303.148c-0.586,0-1.104-0.215-1.553-0.646c-0.449-0.43-0.674-0.977-0.674-1.641
			c0-0.645,0.229-1.167,0.688-1.567c0.458-0.399,0.971-0.601,1.536-0.601c0.605,0,1.14,0.195,1.599,0.586
			c0.458,0.391,0.688,0.918,0.688,1.582c0,0.625-0.226,1.162-0.674,1.611C259.046,302.922,258.509,303.148,257.884,303.148z
			 M256.565,340.707v-30h2.694v30H256.565z"/>
		<path fill="#FFFFFF" d="M280.912,341.439c-4.375,0-7.836-1.44-10.386-4.321c-2.549-2.881-3.823-6.626-3.823-11.234
			c0-4.98,1.334-8.877,4-11.689c2.666-2.812,6.176-4.219,10.53-4.219c4.276,0,7.656,1.396,10.138,4.188
			c2.48,2.793,3.721,6.66,3.721,11.603c0,4.668-1.264,8.447-3.793,11.338S285.306,341.439,280.912,341.439z M281.117,312.435
			c-3.535,0-6.353,1.191-8.451,3.574c-2.1,2.383-3.15,5.692-3.15,9.932c0,3.926,1.025,7.08,3.076,9.463s4.854,3.574,8.408,3.574
			c3.612,0,6.396-1.172,8.35-3.516c1.954-2.345,2.93-5.597,2.93-9.757c0-4.276-0.971-7.559-2.914-9.844
			S284.671,312.435,281.117,312.435z"/>
	</g>
</g>
</svg>
