<?xml version="1.0" encoding="utf-8"?>
<!-- Generator: Adobe Illustrator 14.0.0, SVG Export Plug-In . SVG Version: 6.00 Build 43363)  -->
<!DOCTYPE svg PUBLIC "-//W3C//DTD SVG 1.1//EN" "http://www.w3.org/Graphics/SVG/1.1/DTD/svg11.dtd">
<svg version="1.1" id="Layer_1" xmlns="http://www.w3.org/2000/svg" xmlns:xlink="http://www.w3.org/1999/xlink" x="0px" y="0px"
	 width="438.324px" height="438.324px" viewBox="0 0 438.324 438.324" enable-background="new 0 0 438.324 438.324"
	 xml:space="preserve">
<rect y="0" fill="#F67F00" width="438.324" height="438.324"/>
<path fill="#FFFFFF" d="M108.982,184.431"/>
<g id="Layer_2" display="none">
	<rect x="119.794" y="178.207" display="inline" fill="none" width="176" height="93"/>
	
		<text transform="matrix(1 0 0 1 119.7944 222.6062)" display="inline" fill="#FFFFFF" font-family="'SegoeUI-Light'" font-size="60">Gallery</text>
</g>
<g>
	<path fill="#FFFFFF" d="M96.572,333.41l-3.844-10.453H78.15l-3.844,10.453h-2.555l12.68-33.608h2.203l12.539,33.608H96.572z
		 M86.26,305.285c-0.172-0.469-0.313-0.93-0.422-1.383c-0.109-0.391-0.227-0.781-0.352-1.172h-0.094
		c-0.266,1.031-0.524,1.867-0.773,2.508l-5.648,15.586h12.961L86.26,305.285z"/>
	<path fill="#FFFFFF" d="M119.939,332.355c-1.781,1.094-3.906,1.641-6.375,1.641c-3.266,0-5.898-1.12-7.898-3.362s-3-5.177-3-8.802
		c0-3.813,1.125-6.934,3.375-9.362c2.25-2.43,5.141-3.646,8.672-3.646c1.828,0,3.601,0.375,5.32,1.125v2.438
		c-1.719-1.063-3.602-1.594-5.648-1.594c-2.813,0-5.094,1.012-6.844,3.034c-1.75,2.023-2.625,4.646-2.625,7.863
		c0,3.109,0.8,5.609,2.402,7.5s3.715,2.836,6.34,2.836c2.406,0,4.5-0.641,6.281-1.922V332.355L119.939,332.355z"/>
	<path fill="#FFFFFF" d="M135.197,333.082c-1.125,0.531-2.18,0.798-3.164,0.798c-3.547,0-5.32-2.125-5.32-6.375V311.38H122.4v-1.97
		h4.313v-6.233c0.343-0.125,0.703-0.25,1.078-0.375c0.375-0.109,0.734-0.228,1.078-0.353v6.961h6.328v1.97h-6.328v15.844
		c0,1.656,0.262,2.854,0.785,3.598c0.523,0.743,1.41,1.113,2.66,1.113c0.891,0,1.852-0.289,2.883-0.867V333.082z"/>
	<path fill="#FFFFFF" d="M141.01,303.363c-0.469,0-0.883-0.172-1.242-0.516s-0.539-0.781-0.539-1.313
		c0-0.516,0.184-0.934,0.551-1.254c0.367-0.319,0.777-0.479,1.23-0.479c0.484,0,0.91,0.155,1.277,0.469
		c0.367,0.313,0.551,0.734,0.551,1.266c0,0.5-0.18,0.931-0.539,1.289C141.94,303.183,141.51,303.363,141.01,303.363z
		 M139.955,333.41v-24h2.156v24H139.955z"/>
	<path fill="#FFFFFF" d="M157.674,333.41h-1.969l-9.281-24h2.414l7.148,19.103c0.344,0.922,0.586,1.758,0.727,2.508h0.094
		c0.203-0.984,0.43-1.789,0.68-2.414l7.383-19.195h2.344L157.674,333.41z"/>
	<path fill="#FFFFFF" d="M172.604,303.363c-0.469,0-0.883-0.172-1.242-0.516c-0.359-0.344-0.539-0.781-0.539-1.313
		c0-0.516,0.184-0.934,0.551-1.254c0.367-0.319,0.777-0.479,1.23-0.479c0.484,0,0.91,0.155,1.277,0.469
		c0.367,0.313,0.551,0.734,0.551,1.266c0,0.5-0.18,0.931-0.539,1.289C173.534,303.183,173.104,303.363,172.604,303.363z
		 M171.549,333.41v-24h2.156v24H171.549z"/>
	<path fill="#FFFFFF" d="M190.885,333.082c-1.125,0.531-2.18,0.798-3.164,0.798c-3.547,0-5.32-2.125-5.32-6.375V311.38h-4.313v-1.97
		h4.313v-6.233c0.344-0.125,0.703-0.25,1.078-0.375c0.375-0.109,0.734-0.228,1.078-0.353v6.961h6.328v1.97h-6.328v15.844
		c0,1.656,0.262,2.854,0.785,3.598c0.523,0.743,1.41,1.113,2.66,1.113c0.891,0,1.852-0.289,2.883-0.867V333.082z"/>
	<path fill="#FFFFFF" d="M201.502,338.308c-0.875,2.156-1.844,3.758-2.906,4.805s-2.43,1.57-4.102,1.57
		c-0.703,0-1.328-0.109-1.875-0.328v-2.156c0.563,0.22,1.219,0.328,1.969,0.328c1.922,0,3.438-1.328,4.547-3.983l2.227-5.32
		l-9.094-23.813h2.414l7.242,19.547c0.156,0.423,0.266,0.742,0.328,0.962c0.063,0.297,0.133,0.563,0.211,0.797h0.094l0.563-1.617
		l7.734-19.688h2.344L201.502,338.308z"/>
	<path fill="#FFFFFF" d="M255.314,331.066c-3.469,1.953-7.039,2.93-10.711,2.93c-4.578,0-8.281-1.555-11.109-4.664
		c-2.828-3.108-4.242-7.188-4.242-12.233c0-5.094,1.523-9.344,4.57-12.75s7.117-5.109,12.211-5.109c2.953,0,5.82,0.594,8.602,1.781
		v2.531c-3.047-1.47-6.023-2.203-8.93-2.203c-4.234,0-7.637,1.445-10.207,4.336s-3.855,6.578-3.855,11.063
		c0,4.72,1.207,8.418,3.621,11.099c2.414,2.68,5.668,4.02,9.762,4.02c3.031,0,5.688-0.656,7.97-1.969V318.81h-7.922v-2.109h10.241
		V331.066L255.314,331.066z"/>
	<path fill="#FFFFFF" d="M276.947,333.41v-4.805h-0.094c-0.767,1.641-1.879,2.949-3.34,3.926c-1.462,0.978-3.082,1.465-4.863,1.465
		c-2.281,0-4.086-0.641-5.414-1.922c-1.328-1.28-1.992-2.897-1.992-4.852c0-4.188,2.773-6.719,8.32-7.594l7.383-1.103
		c0-5.156-1.938-7.733-5.813-7.733c-2.641,0-5.211,1.063-7.711,3.188v-2.602c0.892-0.703,2.099-1.306,3.621-1.806
		s2.957-0.75,4.302-0.75c2.469,0,4.379,0.767,5.729,2.297c1.351,1.531,2.026,3.759,2.026,6.681v15.608L276.947,333.41
		L276.947,333.41z M270.338,321.457c-2.516,0.359-4.281,0.941-5.297,1.746c-1.016,0.806-1.523,2.113-1.523,3.927
		c0,1.422,0.474,2.594,1.418,3.516c0.945,0.922,2.263,1.383,3.949,1.383c2.313,0,4.234-0.854,5.766-2.565
		c1.533-1.712,2.298-3.918,2.298-6.621v-2.345L270.338,321.457z"/>
	<path fill="#FFFFFF" d="M286.322,333.41v-35.531h2.156v35.531H286.322z"/>
	<path fill="#FFFFFF" d="M296.166,333.41v-35.531h2.156v35.531H296.166z"/>
	<path fill="#FFFFFF" d="M306.525,321.505c0,3.297,0.762,5.875,2.285,7.733c1.522,1.859,3.612,2.789,6.27,2.789
		c2.688,0,5.313-0.992,7.875-2.977v2.297c-2.484,1.766-5.258,2.647-8.32,2.647c-3.094,0-5.594-1.108-7.5-3.327
		c-1.906-2.22-2.859-5.353-2.859-9.398c0-3.5,0.996-6.449,2.988-8.848c1.992-2.399,4.582-3.599,7.771-3.599
		c2.983,0,5.272,1.047,6.866,3.142c1.595,2.094,2.392,4.953,2.392,8.578v0.961L306.525,321.505L306.525,321.505z M322.041,319.535
		c-0.094-2.766-0.758-4.914-1.992-6.444c-1.234-1.531-2.938-2.297-5.109-2.297c-2.25,0-4.112,0.754-5.59,2.262
		c-1.477,1.508-2.387,3.668-2.729,6.479H322.041z"/>
	<path fill="#FFFFFF" d="M341.564,311.66c-0.719-0.516-1.563-0.772-2.531-0.772c-1.891,0-3.477,0.977-4.758,2.93
		s-1.922,4.728-1.922,8.32v11.272h-2.109v-24h2.109v5.32h0.094c0.547-1.828,1.414-3.25,2.602-4.266
		c1.188-1.017,2.563-1.523,4.125-1.523c0.891,0,1.688,0.141,2.391,0.422V311.66L341.564,311.66z"/>
	<path fill="#FFFFFF" d="M354.877,338.308c-0.875,2.156-1.844,3.758-2.906,4.805c-1.062,1.047-2.43,1.57-4.102,1.57
		c-0.703,0-1.328-0.109-1.875-0.328v-2.156c0.563,0.22,1.219,0.328,1.969,0.328c1.922,0,3.438-1.328,4.547-3.983l2.227-5.32
		l-9.094-23.813h2.414l7.242,19.547c0.156,0.423,0.266,0.742,0.328,0.962c0.063,0.297,0.133,0.563,0.211,0.797h0.094l0.563-1.617
		l7.733-19.688h2.345L354.877,338.308z"/>
</g>
<g>
	<path fill="#FFFFFF" d="M275.369,200.996h20.162v20.162h-20.162V200.996z M275.369,174.785h20.162v20.164h-20.162V174.785z
		 M249.158,174.785h20.164v20.164h-20.164V174.785L249.158,174.785z M249.158,200.996h20.164v20.162h-20.164V200.996
		L249.158,200.996z M301.581,200.996h20.163v20.162h-20.163V200.996z M301.581,174.785h20.163v20.164h-20.163V174.785z
		 M249.158,227.209h20.164v20.161h-20.164V227.209L249.158,227.209z M275.369,227.209h20.162v20.161h-20.162V227.209z
		 M301.581,227.209h20.163v20.161h-20.163V227.209z"/>
	<polygon fill="#FFFFFF" points="240.242,219.605 135.22,219.605 135.22,135.728 284.335,135.728 284.335,165.869 302.974,165.869 
		302.974,98.449 116.58,98.449 116.58,238.245 240.242,238.245 	"/>
</g>
</svg>
