<?xml version="1.0" encoding="utf-8"?>
<!-- Generator: Adobe Illustrator 14.0.0, SVG Export Plug-In . SVG Version: 6.00 Build 43363)  -->
<!DOCTYPE svg PUBLIC "-//W3C//DTD SVG 1.0//EN" "http://www.w3.org/TR/2001/REC-SVG-20010904/DTD/svg10.dtd">
<svg version="1.0" id="Layer_1" xmlns="http://www.w3.org/2000/svg" xmlns:xlink="http://www.w3.org/1999/xlink" x="0px" y="0px"
	 width="44.333px" height="44.333px" viewBox="15.833 15.833 44.333 44.333" enable-background="new 15.833 15.833 44.333 44.333"
	 xml:space="preserve">
<path opacity="0.4" fill="#FFFFFF" d="M38,15.833c12.242,0,22.166,9.924,22.166,22.167S50.242,60.166,38,60.166
	S15.833,50.242,15.833,38S25.758,15.833,38,15.833z M38,19c-0.961,0-1.906,0.071-2.829,0.209c-0.197,0.43-0.338,0.902-0.338,1.375
	c0,1.583-1.583-1.583-3.167,1.583c-1.583,3.167,0,0,0,3.167c0,1.583-2.292,0.438-1.583,0.792c1.583,0.792,1.583,0.792,0,2.375
	c0,0-3.167-1.583-3.167,0s-1.583,1.583-3.167,1.583s0,3.167-1.583,3.167c-1.217,0-0.563-1.872-1.634-2.737
	c-0.407,0.949-0.74,1.938-0.989,2.959c1.067,0.956,1.246,4.733,2.624,6.112c1.583-1.584,1.583,0,3.167,0
	c1.583,0,1.583,0,2.375,1.582c1.583,0,2.375,1.584,3.958,3.168c1.583,1.582,4.75,1.582,4.75,3.166s-1.583,0-1.583,3.166
	c0,1.584,0,1.584-1.583,1.584c-0.997,0-1.994,1.883-2.596,3.277C32.914,56.477,35.396,57,38,57c5.318,0,10.125-2.185,13.574-5.705
	l-0.908-1.816c0,0,1.98-3.166,0.396-4.75c-1.584-1.582-1.584-3.166-1.584-3.166s-3.166,3.166-4.75,1.584
	c-1.582-1.584-1.582,0-3.166-3.168c-1.584-3.166,1.584-4.75,1.584-4.75s0-3.167,1.582-3.167c1.584,0,3.168-3.167,6.334,0
	c0,0,1.83-1.22,4.419-1.518c-0.812-1.901-1.925-3.644-3.28-5.167c-0.284,0.205-0.656,0.352-1.139,0.352
	c-1.584,0,1.584,3.167,0,3.167s-1.584-1.583-3.166-1.583c-1.584,0-1.584,1.583-3.168,3.167c-1.582,1.583,0,0-1.582-1.583
	c-1.584-1.583,3.166,0,1.582-1.583c-1.582-1.583,1.584-1.583,1.584-3.167c0-1.242,1.948-1.51,2.788-1.567
	c-0.913-0.659-1.888-1.239-2.788-1.6c1.584,1.583-1.584,3.167-3.166,3.167c-1.488,0-0.182-2.794-0.018-4.445
	C41.498,19.244,39.777,19,38,19z M19,38c0,5.588,2.413,10.613,6.253,14.09l-1.503-3.006c-1.583,0-2.375-3.563-2.375-5.146
	c0-1.271-0.51-2.286,0.107-3.457c-2.234-2.243-0.898-1.026-0.898-2.48c0-0.754-0.718-1.507-1.47-2.09C19.039,36.596,19,37.293,19,38
	z"/>
</svg>
