<?xml version="1.0" encoding="utf-8"?>
<!-- Generator: Adobe Illustrator 14.0.0, SVG Export Plug-In . SVG Version: 6.00 Build 43363)  -->
<!DOCTYPE svg PUBLIC "-//W3C//DTD SVG 1.0//EN" "http://www.w3.org/TR/2001/REC-SVG-20010904/DTD/svg10.dtd">
<svg version="1.0" xmlns="http://www.w3.org/2000/svg" xmlns:xlink="http://www.w3.org/1999/xlink" x="0px" y="0px"
	 width="83.021px" height="24.93px" viewBox="74.813 25.535 83.021 24.93" enable-background="new 74.813 25.535 83.021 24.93"
	 xml:space="preserve">
<g id="Layer_1" display="none">
	<path display="inline" d="M32.411,38c0,0.131-0.029,0.253-0.037,0.384l13.616,6.801c1.164-0.982,2.656-1.6,4.305-1.6
		c3.703,0,6.705,3.002,6.705,6.705C57,53.998,53.998,57,50.295,57c-3.708,0-6.706-3.002-6.706-6.709
		c0-0.135,0.029-0.254,0.037-0.385L30.01,43.104c-1.169,0.979-2.657,1.597-4.305,1.597C22.002,44.701,19,41.703,19,38
		c0-3.707,3.002-6.709,6.706-6.709c1.648,0,3.136,0.621,4.305,1.604l13.616-6.806c-0.008-0.131-0.037-0.253-0.037-0.389
		c0-3.699,2.998-6.701,6.706-6.701C53.998,19,57,22.002,57,25.701c0,3.707-3.002,6.709-6.705,6.709
		c-1.652,0-3.141-0.616-4.305-1.604l-13.616,6.811C32.382,37.743,32.411,37.865,32.411,38z"/>
</g>
<g id="Layer_2">
	<path opacity="0.5" fill="#FFFFFF" d="M91.748,43.147c-0.763,0-1.471,0.234-2.057,0.634l-7.637-5.05
		c0.049-0.235,0.073-0.481,0.073-0.731c0-0.262-0.027-0.517-0.08-0.763l7.566-5.078c0.6,0.434,1.336,0.691,2.134,0.691
		c2.021,0,3.658-1.638,3.658-3.658c0-2.021-1.638-3.658-3.658-3.658s-3.657,1.638-3.657,3.658c0,0.233,0.023,0.46,0.064,0.681
		l-7.614,5.11c-0.588-0.405-1.302-0.644-2.07-0.644c-2.021,0-3.658,1.638-3.658,3.659c0,2.02,1.638,3.658,3.658,3.658
		c0.78,0,1.502-0.247,2.096-0.663l7.609,5.03c-0.055,0.252-0.085,0.513-0.085,0.781c0,2.019,1.637,3.658,3.657,3.658
		s3.658-1.64,3.658-3.658C95.406,44.785,93.769,43.147,91.748,43.147z"/>
	<g opacity="0.5">
		<path fill="#FFFFFF" d="M116.025,41.604c0,0.95-0.361,1.682-1.084,2.192s-1.748,0.767-3.076,0.767
			c-1.419,0-2.546-0.218-3.379-0.654v-1.045c1.067,0.534,2.194,0.801,3.379,0.801c1.048,0,1.844-0.174,2.388-0.522
			s0.815-0.813,0.815-1.392c0-0.534-0.217-0.982-0.649-1.348s-1.145-0.723-2.134-1.074c-1.062-0.385-1.807-0.715-2.236-0.991
			c-0.43-0.277-0.754-0.589-0.972-0.938s-0.327-0.773-0.327-1.274c0-0.794,0.334-1.422,1.001-1.885s1.6-0.693,2.798-0.693
			c1.146,0,2.233,0.215,3.262,0.645l-0.361,0.879c-1.042-0.43-2.009-0.645-2.9-0.645c-0.866,0-1.553,0.143-2.061,0.43
			s-0.762,0.684-0.762,1.191c0,0.553,0.197,0.996,0.591,1.328s1.164,0.703,2.31,1.113c0.957,0.346,1.653,0.656,2.09,0.933
			s0.764,0.591,0.981,0.942S116.025,41.129,116.025,41.604z"/>
		<path fill="#FFFFFF" d="M126.162,44.367v-6.885c0-1.068-0.225-1.844-0.674-2.329s-1.146-0.728-2.09-0.728
			c-1.27,0-2.199,0.321-2.788,0.962s-0.884,1.681-0.884,3.12v5.859h-0.967V29.172h0.967v4.834l-0.049,1.357h0.068
			c0.397-0.638,0.898-1.1,1.504-1.387s1.357-0.43,2.256-0.43c2.409,0,3.613,1.292,3.613,3.877v6.943H126.162z"/>
		<path fill="#FFFFFF" d="M137.002,44.367l-0.244-1.68h-0.078c-0.534,0.684-1.082,1.167-1.646,1.45s-1.229,0.425-1.997,0.425
			c-1.042,0-1.853-0.267-2.432-0.801s-0.869-1.272-0.869-2.217c0-1.035,0.432-1.84,1.294-2.412s2.111-0.875,3.745-0.908l2.021-0.059
			v-0.703c0-1.009-0.205-1.771-0.615-2.285s-1.071-0.771-1.982-0.771c-0.983,0-2.002,0.273-3.057,0.82l-0.361-0.84
			c1.165-0.547,2.317-0.82,3.457-0.82c1.165,0,2.036,0.303,2.612,0.908s0.864,1.549,0.864,2.832v7.061H137.002z M133.096,43.684
			c1.133,0,2.026-0.324,2.681-0.972s0.981-1.548,0.981-2.7v-1.045l-1.855,0.078c-1.491,0.072-2.554,0.305-3.188,0.698
			s-0.952,1.007-0.952,1.841c0,0.664,0.203,1.18,0.61,1.548S132.354,43.684,133.096,43.684z"/>
		<path fill="#FFFFFF" d="M145.332,33.547c0.449,0,0.931,0.045,1.445,0.137l-0.186,0.928c-0.442-0.111-0.901-0.166-1.377-0.166
			c-0.905,0-1.647,0.384-2.227,1.152s-0.869,1.738-0.869,2.91v5.859h-0.967V33.752h0.82l0.098,1.914h0.068
			c0.437-0.781,0.901-1.33,1.396-1.646S144.629,33.547,145.332,33.547z"/>
		<path fill="#FFFFFF" d="M153.223,44.563c-1.543,0-2.746-0.476-3.608-1.426s-1.294-2.281-1.294-3.994
			c0-1.693,0.417-3.048,1.25-4.067s1.956-1.528,3.369-1.528c1.25,0,2.236,0.436,2.959,1.309s1.084,2.057,1.084,3.555v0.781h-7.646
			c0.013,1.459,0.354,2.571,1.021,3.34s1.623,1.152,2.866,1.152c0.605,0,1.138-0.042,1.597-0.127s1.04-0.267,1.743-0.547v0.879
			c-0.599,0.261-1.152,0.438-1.66,0.532S153.835,44.563,153.223,44.563z M152.939,34.406c-1.022,0-1.843,0.337-2.461,1.011
			s-0.979,1.646-1.084,2.915h6.563c0-1.23-0.267-2.192-0.801-2.886S153.884,34.406,152.939,34.406z"/>
	</g>
</g>
</svg>
