<?xml version="1.0" encoding="utf-8"?>
<!-- Generator: Adobe Illustrator 14.0.0, SVG Export Plug-In . SVG Version: 6.00 Build 43363)  -->
<!DOCTYPE svg PUBLIC "-//W3C//DTD SVG 1.1//EN" "http://www.w3.org/Graphics/SVG/1.1/DTD/svg11.dtd">
<svg version="1.1" id="Layer_1" xmlns="http://www.w3.org/2000/svg" xmlns:xlink="http://www.w3.org/1999/xlink" x="0px" y="0px"
	 width="438.324px" height="438.324px" viewBox="0 0 438.324 438.324" enable-background="new 0 0 438.324 438.324"
	 xml:space="preserve">
<rect y="0" fill="#977014" width="438.324" height="438.324"/>
<path fill="#FFFFFF" d="M108.982,184.431"/>
<g id="Layer_2" display="none">
	<rect x="119.794" y="178.207" display="inline" fill="none" width="176" height="93"/>
	
		<text transform="matrix(1 0 0 1 119.7944 222.6062)" display="inline" fill="#FFFFFF" font-family="'SegoeUI-Light'" font-size="60">Gallery</text>
</g>
<g>
	<path fill="#FFFFFF" d="M267.676,214.792h20.162v20.162h-20.162V214.792z M267.676,188.581h20.162v20.164h-20.162V188.581z
		 M241.465,188.581h20.164v20.164h-20.164V188.581L241.465,188.581z M241.465,214.792h20.164v20.162h-20.164V214.792
		L241.465,214.792z M293.888,214.792h20.163v20.162h-20.163V214.792z M293.888,188.581h20.163v20.164h-20.163V188.581z
		 M241.465,241.005h20.164v20.161h-20.164V241.005L241.465,241.005z M267.676,241.005h20.162v20.161h-20.162V241.005z
		 M293.888,241.005h20.163v20.161h-20.163V241.005z"/>
	<g>
		<path fill="#FFFFFF" d="M231.944,188.825h-13.139l26.667-26.675h13.34l-16.909,16.911h20.004l16.909-16.911h6.664l-0.033,6.704
			l-10.207,10.207h16.91v-23.58H132.118v73.351c0,7.361,5.972,13.333,13.337,13.333h86.489V188.825z M138.788,182.154v-13.333
			l6.667-6.671h13.337L138.788,182.154z M152.124,188.825l26.672-26.675h13.335l-26.672,26.675H152.124z M185.462,188.825
			l26.672-26.675h13.334L198.8,188.825H185.462z"/>
		<path fill="#FFFFFF" d="M280.554,86.997c-1.657-7.178-8.818-11.651-15.998-9.994l-129.944,30
			c-7.176,1.658-11.651,8.817-9.993,15.993l7.499,32.486l155.932-36L280.554,86.997z M134.116,134.49l14.993-23.991l12.994-3
			l-24.986,39.985L134.116,134.49z M156.608,142.984l24.985-39.983l12.995-3l-24.985,39.984L156.608,142.984z M189.095,135.487
			l24.982-39.988l12.997-2.998l-24.985,39.983L189.095,135.487z M221.579,127.985L246.567,88l12.99-3l-24.985,39.986
			L221.579,127.985z M267.055,117.485l-12.991,3.001l19.992-31.989l2.997,12.993L267.055,117.485z"/>
	</g>
</g>
<g>
	<path fill="#FFFFFF" d="M102.783,299.09h2.602l-12.82,34.266h-2.109L77.682,299.09h2.555l8.625,23.32
		c1.313,3.516,2.195,6.156,2.648,7.922c0.313-1.172,0.929-2.992,1.852-5.461L102.783,299.09z"/>
	<path fill="#FFFFFF" d="M109.322,300.801c0-1.5,0.492-2.25,1.477-2.25c0.484,0,0.863,0.195,1.137,0.586
		c0.273,0.391,0.41,0.945,0.41,1.664c0,0.703-0.137,1.258-0.41,1.664c-0.273,0.406-0.653,0.609-1.137,0.609
		C109.814,303.074,109.322,302.316,109.322,300.801z M111.971,333.355h-2.32v-25.477h2.32V333.355z"/>
	<path fill="#FFFFFF" d="M129.83,307.386c1.843,0,3.437,0.336,4.781,1.008c1.344,0.672,2.546,1.82,3.609,3.445h0.141
		c-0.094-1.969-0.141-3.898-0.141-5.789v-9.164h2.297v36.469h-1.523l-0.586-3.891h-0.188c-1.938,2.906-4.719,4.359-8.344,4.359
		c-3.516,0-6.203-1.094-8.063-3.281c-1.86-2.188-2.789-5.375-2.789-9.563c0-4.406,0.922-7.773,2.766-10.102
		C123.634,308.551,126.314,307.386,129.83,307.386z M129.83,309.496c-2.781,0-4.872,0.977-6.27,2.93
		c-1.398,1.953-2.098,4.789-2.098,8.508c0,7.219,2.804,10.828,8.414,10.828c2.875,0,4.984-0.836,6.328-2.508
		c1.344-1.672,2.016-4.43,2.016-8.273v-0.398c0-3.938-0.66-6.77-1.98-8.496C134.919,310.359,132.783,309.496,129.83,309.496z"/>
	<path fill="#FFFFFF" d="M159.361,333.824c-3.703,0-6.59-1.141-8.66-3.422c-2.071-2.281-3.105-5.477-3.105-9.586
		c0-4.063,1-7.316,3-9.762c2-2.445,4.695-3.668,8.086-3.668c3,0,5.367,1.047,7.102,3.141s2.602,4.938,2.602,8.531v1.875h-18.352
		c0.031,3.5,0.847,6.172,2.449,8.016c1.602,1.844,3.894,2.766,6.879,2.766c1.453,0,2.73-0.102,3.832-0.305s2.496-0.641,4.184-1.313
		v2.109c-1.438,0.625-2.766,1.051-3.984,1.277S160.83,333.824,159.361,333.824z M158.682,309.449c-2.453,0-4.422,0.809-5.906,2.426
		c-1.485,1.617-2.352,3.949-2.602,6.996h15.75c0-2.953-0.641-5.262-1.922-6.926C162.721,310.281,160.947,309.449,158.682,309.449z"
		/>
	<path fill="#FFFFFF" d="M196.486,320.582c0,4.156-1.008,7.402-3.023,9.738s-4.797,3.504-8.344,3.504
		c-2.235,0-4.204-0.539-5.906-1.617c-1.703-1.078-3.008-2.625-3.914-4.641c-0.906-2.016-1.359-4.344-1.359-6.984
		c0-4.156,1.008-7.395,3.023-9.715s4.781-3.48,8.297-3.48c3.5,0,6.246,1.176,8.238,3.527S196.486,316.488,196.486,320.582z
		 M176.377,320.582c0,3.5,0.77,6.23,2.309,8.191c1.539,1.961,3.715,2.941,6.527,2.941s4.988-0.98,6.527-2.941
		c1.539-1.961,2.309-4.691,2.309-8.191c0-3.516-0.777-6.242-2.332-8.18c-1.555-1.938-3.738-2.906-6.551-2.906
		s-4.98,0.965-6.504,2.895S176.377,317.051,176.377,320.582z"/>
	<path fill="#FFFFFF" d="M230.072,316.082h12.633v15.633c-3.313,1.406-7.039,2.109-11.18,2.109c-5.406,0-9.551-1.527-12.434-4.582
		s-4.324-7.379-4.324-12.973c0-3.484,0.715-6.574,2.145-9.27s3.477-4.777,6.141-6.246s5.723-2.203,9.176-2.203
		c3.734,0,7.086,0.688,10.055,2.063l-0.961,2.156c-2.969-1.375-6.047-2.063-9.234-2.063c-4.516,0-8.098,1.395-10.746,4.184
		s-3.973,6.551-3.973,11.285c0,5.156,1.257,9.035,3.773,11.637c2.516,2.602,6.211,3.902,11.086,3.902
		c3.156,0,5.836-0.445,8.039-1.336v-12.047h-10.195V316.082z"/>
	<path fill="#FFFFFF" d="M266.189,333.355l-0.586-4.031h-0.188c-1.281,1.641-2.598,2.801-3.949,3.48s-2.949,1.02-4.793,1.02
		c-2.5,0-4.445-0.641-5.836-1.922s-2.086-3.055-2.086-5.32c0-2.484,1.035-4.414,3.105-5.789s5.066-2.102,8.988-2.18l4.852-0.141
		v-1.688c0-2.422-0.492-4.25-1.477-5.484s-2.57-1.852-4.758-1.852c-2.359,0-4.805,0.656-7.336,1.969l-0.867-2.016
		c2.797-1.313,5.563-1.969,8.297-1.969c2.797,0,4.887,0.727,6.27,2.18s2.074,3.719,2.074,6.797v16.945H266.189z M256.814,331.715
		c2.719,0,4.863-0.777,6.434-2.332s2.355-3.715,2.355-6.48v-2.508l-4.453,0.188c-3.578,0.172-6.129,0.73-7.652,1.676
		s-2.285,2.418-2.285,4.418c0,1.594,0.488,2.832,1.465,3.715S255.033,331.715,256.814,331.715z"/>
	<path fill="#FFFFFF" d="M278.471,333.355h-2.32v-36.469h2.32V333.355z"/>
	<path fill="#FFFFFF" d="M289.322,333.355h-2.32v-36.469h2.32V333.355z"/>
	<path fill="#FFFFFF" d="M308.143,333.824c-3.703,0-6.59-1.141-8.66-3.422s-3.105-5.477-3.105-9.586c0-4.063,1-7.316,3-9.762
		s4.695-3.668,8.086-3.668c3,0,5.367,1.047,7.102,3.141s2.602,4.938,2.602,8.531v1.875h-18.352c0.031,3.5,0.848,6.172,2.449,8.016
		s3.895,2.766,6.879,2.766c1.453,0,2.73-0.102,3.832-0.305s2.496-0.641,4.184-1.313v2.109c-1.438,0.625-2.766,1.051-3.984,1.277
		S309.611,333.824,308.143,333.824z M307.463,309.449c-2.453,0-4.422,0.809-5.906,2.426s-2.352,3.949-2.602,6.996h15.75
		c0-2.953-0.641-5.262-1.922-6.926S309.729,309.449,307.463,309.449z"/>
	<path fill="#FFFFFF" d="M334.229,307.386c1.078,0,2.234,0.109,3.469,0.328l-0.445,2.227c-1.063-0.266-2.164-0.398-3.305-0.398
		c-2.172,0-3.953,0.922-5.344,2.766s-2.086,4.172-2.086,6.984v14.063h-2.32v-25.477h1.969l0.234,4.594h0.164
		c1.047-1.875,2.164-3.191,3.352-3.949S332.541,307.386,334.229,307.386z"/>
	<path fill="#FFFFFF" d="M338.611,307.879h2.391l5.391,14.297c1.641,4.391,2.68,7.352,3.117,8.883h0.141
		c0.656-2.016,1.727-5.023,3.211-9.023l5.391-14.156h2.391l-11.414,29.602c-0.922,2.406-1.695,4.031-2.32,4.875
		s-1.355,1.477-2.191,1.898s-1.848,0.633-3.035,0.633c-0.891,0-1.883-0.164-2.977-0.492v-2.016c0.906,0.25,1.883,0.375,2.93,0.375
		c0.797,0,1.5-0.188,2.109-0.563s1.16-0.957,1.652-1.746s1.063-2.039,1.711-3.75s1.066-2.824,1.254-3.34L338.611,307.879z"/>
</g>
</svg>
