<?xml version="1.0" encoding="utf-8"?>
<!-- Generator: Adobe Illustrator 14.0.0, SVG Export Plug-In . SVG Version: 6.00 Build 43363)  -->
<!DOCTYPE svg PUBLIC "-//W3C//DTD SVG 1.1//EN" "http://www.w3.org/Graphics/SVG/1.1/DTD/svg11.dtd">
<svg version="1.1" id="Layer_1" xmlns="http://www.w3.org/2000/svg" xmlns:xlink="http://www.w3.org/1999/xlink" x="0px" y="0px"
	 width="438.324px" height="438.324px" viewBox="0 0 438.324 438.324" enable-background="new 0 0 438.324 438.324"
	 xml:space="preserve">
<rect y="0" fill="#E0B000" width="438.324" height="438.324"/>
<path fill="#FFFFFF" d="M108.982,184.431"/>
<g id="Layer_2" display="none">
	<rect x="119.794" y="178.207" display="inline" fill="none" width="176" height="93"/>
	
		<text transform="matrix(1 0 0 1 119.7944 222.6062)" display="inline" fill="#FFFFFF" font-family="'SegoeUI-Light'" font-size="60">Gallery</text>
</g>
<g>
	<g>
		<polygon fill="#FFFFFF" points="239.662,185.289 269.83,185.289 249.163,164.621 193.029,220.757 178.996,206.726 
			152.035,236.268 239.662,236.268 		"/>
		<polygon fill="#FFFFFF" points="239.662,240.7 129.875,240.7 129.875,107.745 289.422,107.745 289.422,185.289 302.718,185.289 
			302.718,94.449 116.58,94.449 116.58,253.996 239.662,253.996 		"/>
		<path fill="#FFFFFF" d="M168.284,112.177h-33.977v35.455c2.242,0.578,5.332,1.108,7.755,1.108
			c15.501,0,28.069-12.566,28.069-28.069C170.132,118.247,168.862,114.421,168.284,112.177z"/>
		<polygon fill="#FFFFFF" points="284.99,185.289 284.99,169.791 270.573,185.289 		"/>
	</g>
	<path fill="#FFFFFF" d="M275.369,220.996h20.162v20.162h-20.162V220.996z M275.369,194.785h20.162v20.164h-20.162V194.785z
		 M249.158,194.785h20.164v20.164h-20.164V194.785L249.158,194.785z M249.158,220.996h20.164v20.162h-20.164V220.996
		L249.158,220.996z M301.581,220.996h20.163v20.162h-20.163V220.996z M301.581,194.785h20.163v20.164h-20.163V194.785z
		 M249.158,247.209h20.164v20.161h-20.164V247.209L249.158,247.209z M275.369,247.209h20.162v20.161h-20.162V247.209z
		 M301.581,247.209h20.163v20.161h-20.163V247.209z"/>
</g>
<g>
	<path fill="#FFFFFF" d="M78.265,334.144v-34.266h2.391v34.266H78.265z"/>
	<path fill="#FFFFFF" d="M121.601,334.144v-16.711c0-2.484-0.484-4.297-1.453-5.438c-0.969-1.141-2.453-1.711-4.453-1.711
		c-2.61,0-4.539,0.719-5.789,2.156c-1.25,1.438-1.875,3.695-1.875,6.773v14.93h-2.367V316.73c0-4.297-1.969-6.445-5.906-6.445
		c-2.672,0-4.617,0.777-5.836,2.332s-1.828,4.043-1.828,7.465v14.063h-2.32v-25.477h1.922l0.492,3.492h0.141
		c0.703-1.266,1.703-2.246,3-2.941c1.297-0.695,2.727-1.043,4.289-1.043c4.016,0,6.594,1.508,7.734,4.523h0.094
		c0.828-1.453,1.941-2.57,3.34-3.352c1.398-0.781,2.988-1.172,4.77-1.172c2.781,0,4.867,0.742,6.258,2.227
		c1.391,1.484,2.086,3.844,2.086,7.078v16.664H121.601z"/>
	<path fill="#FFFFFF" d="M147.616,334.144l-0.586-4.031h-0.188c-1.281,1.641-2.598,2.801-3.949,3.48
		c-1.352,0.68-2.95,1.02-4.793,1.02c-2.5,0-4.445-0.641-5.836-1.922c-1.391-1.281-2.086-3.055-2.086-5.32
		c0-2.484,1.035-4.414,3.105-5.789c2.07-1.375,5.066-2.102,8.988-2.18l4.852-0.141v-1.688c0-2.422-0.492-4.25-1.477-5.484
		s-2.57-1.852-4.758-1.852c-2.359,0-4.805,0.656-7.336,1.969l-0.867-2.016c2.797-1.313,5.563-1.969,8.297-1.969
		c2.797,0,4.887,0.727,6.27,2.18s2.074,3.719,2.074,6.797v16.945H147.616z M138.241,332.504c2.719,0,4.863-0.777,6.434-2.332
		s2.355-3.715,2.355-6.48v-2.508l-4.453,0.188c-3.578,0.172-6.129,0.73-7.652,1.676s-2.285,2.418-2.285,4.418
		c0,1.594,0.488,2.832,1.465,3.715C135.081,332.062,136.46,332.504,138.241,332.504z"/>
	<path fill="#FFFFFF" d="M177.452,308.668v1.617l-5.273,0.328c1.406,1.75,2.109,3.672,2.109,5.766c0,2.453-0.817,4.441-2.449,5.965
		c-1.633,1.523-3.824,2.285-6.574,2.285c-1.157,0-1.969-0.047-2.438-0.141c-0.922,0.484-1.625,1.055-2.109,1.711
		c-0.484,0.656-0.727,1.352-0.727,2.086c0,0.813,0.308,1.406,0.926,1.781c0.617,0.375,1.652,0.563,3.105,0.563h4.453
		c2.766,0,4.883,0.559,6.352,1.676c1.468,1.117,2.203,2.77,2.203,4.957c0,2.688-1.09,4.762-3.27,6.223s-5.285,2.191-9.316,2.191
		c-3.203,0-5.684-0.617-7.441-1.852s-2.637-2.953-2.637-5.156c0-1.75,0.542-3.203,1.629-4.359c1.086-1.156,2.558-1.945,4.418-2.367
		c-0.766-0.328-1.379-0.793-1.84-1.395c-0.461-0.602-0.691-1.293-0.691-2.074c0-1.703,1.086-3.203,3.258-4.5
		c-1.485-0.609-2.641-1.566-3.469-2.871c-0.829-1.305-1.242-2.801-1.242-4.488c0-2.547,0.809-4.59,2.426-6.129
		s3.8-2.309,6.551-2.309c1.672,0,2.968,0.164,3.891,0.492H177.452z M156.827,338.457c0,3.5,2.602,5.25,7.805,5.25
		c6.688,0,10.031-2.133,10.031-6.398c0-1.531-0.524-2.641-1.57-3.328c-1.047-0.688-2.742-1.031-5.086-1.031h-4.172
		C159.163,332.949,156.827,334.785,156.827,338.457z M158.772,316.613c0,1.969,0.598,3.496,1.793,4.582s2.792,1.629,4.793,1.629
		c2.125,0,3.753-0.539,4.887-1.617c1.133-1.078,1.699-2.641,1.699-4.688c0-2.172-0.583-3.801-1.746-4.887
		c-1.164-1.086-2.793-1.629-4.887-1.629c-2.031,0-3.629,0.582-4.793,1.746C159.354,312.914,158.772,314.535,158.772,316.613z"/>
	<path fill="#FFFFFF" d="M192.968,334.613c-3.703,0-6.59-1.141-8.66-3.422c-2.071-2.281-3.105-5.477-3.105-9.586
		c0-4.063,1-7.316,3-9.762c2-2.445,4.695-3.668,8.086-3.668c3,0,5.367,1.047,7.102,3.141s2.602,4.938,2.602,8.531v1.875H183.64
		c0.031,3.5,0.847,6.172,2.449,8.016c1.602,1.844,3.894,2.766,6.879,2.766c1.453,0,2.73-0.102,3.832-0.305s2.496-0.641,4.184-1.313
		v2.109c-1.438,0.625-2.766,1.051-3.984,1.277S194.436,334.613,192.968,334.613z M192.288,310.238c-2.453,0-4.422,0.809-5.906,2.426
		c-1.485,1.617-2.352,3.949-2.602,6.996h15.75c0-2.953-0.641-5.262-1.922-6.926C196.327,311.07,194.553,310.238,192.288,310.238z"/>
	<path fill="#FFFFFF" d="M235.554,316.871h12.633v15.633c-3.313,1.406-7.039,2.109-11.18,2.109c-5.406,0-9.551-1.527-12.434-4.582
		s-4.324-7.379-4.324-12.973c0-3.484,0.715-6.574,2.145-9.27s3.477-4.777,6.141-6.246s5.723-2.203,9.176-2.203
		c3.734,0,7.086,0.688,10.055,2.063l-0.961,2.156c-2.969-1.375-6.047-2.063-9.234-2.063c-4.516,0-8.098,1.395-10.746,4.184
		s-3.973,6.551-3.973,11.285c0,5.156,1.258,9.035,3.773,11.637s6.211,3.902,11.086,3.902c3.156,0,5.836-0.445,8.039-1.336v-12.047
		h-10.195V316.871z"/>
	<path fill="#FFFFFF" d="M271.671,334.144l-0.586-4.031h-0.188c-1.281,1.641-2.598,2.801-3.949,3.48s-2.949,1.02-4.793,1.02
		c-2.5,0-4.445-0.641-5.836-1.922s-2.086-3.055-2.086-5.32c0-2.484,1.035-4.414,3.105-5.789s5.066-2.102,8.988-2.18l4.852-0.141
		v-1.688c0-2.422-0.492-4.25-1.477-5.484s-2.57-1.852-4.758-1.852c-2.359,0-4.805,0.656-7.336,1.969l-0.867-2.016
		c2.797-1.313,5.563-1.969,8.297-1.969c2.797,0,4.887,0.727,6.27,2.18s2.074,3.719,2.074,6.797v16.945H271.671z M262.296,332.504
		c2.719,0,4.863-0.777,6.434-2.332s2.355-3.715,2.355-6.48v-2.508l-4.453,0.188c-3.578,0.172-6.129,0.73-7.652,1.676
		s-2.285,2.418-2.285,4.418c0,1.594,0.488,2.832,1.465,3.715S260.515,332.504,262.296,332.504z"/>
	<path fill="#FFFFFF" d="M283.952,334.144h-2.32v-36.469h2.32V334.144z"/>
	<path fill="#FFFFFF" d="M294.804,334.144h-2.32v-36.469h2.32V334.144z"/>
	<path fill="#FFFFFF" d="M313.624,334.613c-3.703,0-6.59-1.141-8.66-3.422s-3.105-5.477-3.105-9.586c0-4.063,1-7.316,3-9.762
		s4.695-3.668,8.086-3.668c3,0,5.367,1.047,7.102,3.141s2.602,4.938,2.602,8.531v1.875h-18.352c0.031,3.5,0.848,6.172,2.449,8.016
		s3.895,2.766,6.879,2.766c1.453,0,2.73-0.102,3.832-0.305s2.496-0.641,4.184-1.313v2.109c-1.438,0.625-2.766,1.051-3.984,1.277
		S315.093,334.613,313.624,334.613z M312.944,310.238c-2.453,0-4.422,0.809-5.906,2.426s-2.352,3.949-2.602,6.996h15.75
		c0-2.953-0.641-5.262-1.922-6.926S315.21,310.238,312.944,310.238z"/>
	<path fill="#FFFFFF" d="M339.71,308.176c1.078,0,2.234,0.109,3.469,0.328l-0.445,2.227c-1.063-0.266-2.164-0.398-3.305-0.398
		c-2.172,0-3.953,0.922-5.344,2.766s-2.086,4.172-2.086,6.984v14.063h-2.32v-25.477h1.969l0.234,4.594h0.164
		c1.047-1.875,2.164-3.191,3.352-3.949S338.022,308.176,339.71,308.176z"/>
	<path fill="#FFFFFF" d="M344.093,308.668h2.391l5.391,14.297c1.641,4.391,2.68,7.352,3.117,8.883h0.141
		c0.656-2.016,1.727-5.023,3.211-9.023l5.391-14.156h2.391l-11.414,29.602c-0.922,2.406-1.695,4.031-2.32,4.875
		s-1.355,1.477-2.191,1.898s-1.848,0.633-3.035,0.633c-0.891,0-1.883-0.164-2.977-0.492v-2.016c0.906,0.25,1.883,0.375,2.93,0.375
		c0.797,0,1.5-0.188,2.109-0.563s1.16-0.957,1.652-1.746s1.063-2.039,1.711-3.75s1.066-2.824,1.254-3.34L344.093,308.668z"/>
</g>
</svg>
